<svg width="155" height="28" viewBox="0 0 155 28" fill="none" xmlns="http://www.w3.org/2000/svg">
<circle cx="6.79412" cy="5.74407" r="3.29412" fill="#50ADBB"/>
<circle cx="6.79412" cy="13.65" r="3.29412" fill="#50ADBB" fill-opacity="0.6"/>
<ellipse cx="6.79412" cy="21.5558" rx="3.29412" ry="3.29412" fill="#50ADBB" fill-opacity="0.3"/>
<ellipse cx="14.7" cy="5.74407" rx="3.29412" ry="3.29412" fill="#50ADBB" fill-opacity="0.01"/>
<ellipse cx="14.7" cy="13.65" rx="3.29412" ry="3.29412" fill="#50ADBB" fill-opacity="0.9"/>
<ellipse cx="14.7" cy="21.5558" rx="3.29412" ry="3.29412" fill="#50ADBB" fill-opacity="0.6"/>
<circle cx="22.6059" cy="5.74407" r="3.29412" fill="#50ADBB" fill-opacity="0.01"/>
<circle cx="22.6059" cy="13.65" r="3.29412" fill="#50ADBB" fill-opacity="0.01"/>
<ellipse cx="22.6059" cy="21.5558" rx="3.29412" ry="3.29412" fill="#50ADBB"/>
<path d="M42.2222 7.73774C43.4945 7.73774 44.5446 7.89257 45.3726 8.20222C46.2073 8.51187 46.8266 8.98308 47.2305 9.61584C47.6411 10.2486 47.8464 11.053 47.8464 12.0291C47.8464 12.7561 47.7118 13.3754 47.4425 13.887C47.1732 14.3986 46.8198 14.8227 46.3823 15.1593C45.9447 15.4958 45.4769 15.7651 44.9788 15.967L49.1691 22.5H46.4328L42.8684 16.583H40.4956V22.5H38.0722V7.73774H42.2222ZM42.0606 9.7572H40.4956V14.5837H42.1717C43.2959 14.5837 44.1104 14.375 44.6153 13.9577C45.1268 13.5403 45.3826 12.9244 45.3826 12.1099C45.3826 11.255 45.11 10.6491 44.5648 10.2924C44.0262 9.93559 43.1915 9.7572 42.0606 9.7572ZM60.1053 16.8859C60.1053 17.8149 59.9842 18.6395 59.7418 19.3597C59.4995 20.08 59.1461 20.6892 58.6816 21.1874C58.2171 21.6788 57.6584 22.0557 57.0054 22.3182C56.3525 22.574 55.6154 22.7019 54.7941 22.7019C54.0267 22.7019 53.3233 22.574 52.6838 22.3182C52.0443 22.0557 51.489 21.6788 51.0177 21.1874C50.5533 20.6892 50.1931 20.08 49.9373 19.3597C49.6815 18.6395 49.5536 17.8149 49.5536 16.8859C49.5536 15.654 49.7657 14.6106 50.1898 13.7557C50.6206 12.8941 51.2332 12.2378 52.0275 11.7868C52.8218 11.3357 53.7676 11.1102 54.8648 11.1102C55.8947 11.1102 56.8035 11.3357 57.5911 11.7868C58.3787 12.2378 58.9946 12.8941 59.4389 13.7557C59.8832 14.6174 60.1053 15.6608 60.1053 16.8859ZM51.9972 16.8859C51.9972 17.7004 52.0948 18.3971 52.29 18.976C52.492 19.555 52.8016 19.9992 53.219 20.3089C53.6363 20.6118 54.1748 20.7633 54.8345 20.7633C55.4942 20.7633 56.0327 20.6118 56.4501 20.3089C56.8675 19.9992 57.1737 19.555 57.369 18.976C57.5642 18.3971 57.6618 17.7004 57.6618 16.8859C57.6618 16.0714 57.5642 15.3814 57.369 14.816C57.1737 14.2438 56.8675 13.8096 56.4501 13.5134C56.0327 13.2105 55.4909 13.059 54.8244 13.059C53.8416 13.059 53.1247 13.3889 52.6737 14.0486C52.2227 14.7082 51.9972 15.654 51.9972 16.8859ZM64.3874 22.5H62.0044V6.7886H64.3874V22.5ZM69.3359 22.5H66.9529V6.7886H69.3359V22.5ZM74.2743 11.3223V22.5H71.9014V11.3223H74.2743ZM73.103 7.04103C73.4665 7.04103 73.7795 7.13864 74.042 7.33385C74.3113 7.52907 74.4459 7.86564 74.4459 8.34358C74.4459 8.81479 74.3113 9.15137 74.042 9.35331C73.7795 9.54853 73.4665 9.64613 73.103 9.64613C72.726 9.64613 72.4063 9.54853 72.1437 9.35331C71.8879 9.15137 71.76 8.81479 71.76 8.34358C71.76 7.86564 71.8879 7.52907 72.1437 7.33385C72.4063 7.13864 72.726 7.04103 73.103 7.04103ZM82.676 11.1102C83.9348 11.1102 84.9143 11.4367 85.6143 12.0897C86.3212 12.7359 86.6746 13.7759 86.6746 15.2097V22.5H84.3017V15.654C84.3017 14.7857 84.1233 14.1361 83.7665 13.7052C83.4098 13.2677 82.8578 13.0489 82.1106 13.0489C81.0268 13.0489 80.2729 13.3821 79.8488 14.0486C79.4314 14.715 79.2227 15.681 79.2227 16.9465V22.5H76.8499V11.3223H78.6977L79.0309 12.8369H79.1622C79.4045 12.4465 79.7041 12.1267 80.0608 11.8776C80.4243 11.6218 80.8282 11.43 81.2725 11.3021C81.7235 11.1742 82.1914 11.1102 82.676 11.1102ZM92.3601 27.4679C90.8455 27.4679 89.6844 27.1952 88.8766 26.65C88.0688 26.1047 87.6649 25.3407 87.6649 24.3579C87.6649 23.6713 87.8803 23.089 88.3111 22.6111C88.7419 22.1399 89.3579 21.8134 90.1589 21.6316C89.856 21.497 89.5935 21.2883 89.3713 21.0056C89.1559 20.7161 89.0482 20.3964 89.0482 20.0464C89.0482 19.629 89.166 19.2722 89.4016 18.976C89.6372 18.6799 89.9906 18.3938 90.4619 18.1178C89.8762 17.8687 89.405 17.4648 89.0482 16.9061C88.6982 16.3406 88.5232 15.6776 88.5232 14.9169C88.5232 14.1091 88.6948 13.4225 89.0381 12.8571C89.3814 12.2849 89.8829 11.8507 90.5426 11.5545C91.2023 11.2516 92 11.1001 92.9357 11.1001C93.1376 11.1001 93.3564 11.1136 93.592 11.1405C93.8343 11.1607 94.0565 11.1877 94.2584 11.2213C94.4671 11.2482 94.6253 11.2785 94.733 11.3122H98.6003V12.6349L96.702 12.9883C96.8837 13.2441 97.0285 13.537 97.1362 13.8668C97.2439 14.1899 97.2977 14.5433 97.2977 14.927C97.2977 16.0848 96.8972 16.997 96.0961 17.6634C95.3018 18.3231 94.2046 18.6529 92.8044 18.6529C92.4678 18.6395 92.1414 18.6125 91.825 18.5721C91.5827 18.7202 91.3975 18.8852 91.2696 19.0669C91.1417 19.2419 91.0778 19.4405 91.0778 19.6627C91.0778 19.8444 91.1417 19.9925 91.2696 20.1069C91.3975 20.2146 91.586 20.2954 91.8351 20.3493C92.0909 20.4031 92.4005 20.4301 92.764 20.4301H94.6926C95.9178 20.4301 96.8534 20.6892 97.4997 21.2075C98.1459 21.7259 98.469 22.4865 98.469 23.4895C98.469 24.7618 97.944 25.7412 96.8938 26.4279C95.8437 27.1212 94.3325 27.4679 92.3601 27.4679ZM92.451 25.8018C93.279 25.8018 93.9757 25.721 94.5412 25.5595C95.1066 25.3979 95.5341 25.1657 95.8235 24.8628C96.113 24.5666 96.2577 24.2132 96.2577 23.8026C96.2577 23.439 96.1668 23.1597 95.9851 22.9645C95.8033 22.7693 95.5307 22.6346 95.1672 22.5606C94.8037 22.4865 94.3527 22.4495 93.8142 22.4495H92.0572C91.6197 22.4495 91.2326 22.5168 90.896 22.6515C90.5595 22.7928 90.2969 22.9948 90.1084 23.2573C89.9267 23.5198 89.8358 23.8362 89.8358 24.2064C89.8358 24.718 90.0613 25.1118 90.5123 25.3878C90.9701 25.6638 91.6163 25.8018 92.451 25.8018ZM92.9155 17.0979C93.6088 17.0979 94.1238 16.9095 94.4604 16.5325C94.797 16.1488 94.9652 15.6103 94.9652 14.9169C94.9652 14.163 94.7902 13.5975 94.4402 13.2206C94.0969 12.8436 93.5853 12.6551 92.9054 12.6551C92.239 12.6551 91.7307 12.847 91.3807 13.2307C91.0374 13.6144 90.8657 14.1832 90.8657 14.9371C90.8657 15.617 91.0374 16.1488 91.3807 16.5325C91.7307 16.9095 92.2423 17.0979 92.9155 17.0979ZM100.055 7.73774H104.447C106.352 7.73774 107.79 8.01374 108.759 8.56572C109.728 9.11771 110.213 10.0702 110.213 11.4233C110.213 11.9887 110.112 12.5003 109.91 12.958C109.715 13.4091 109.429 13.7827 109.052 14.0788C108.675 14.3683 108.21 14.5635 107.658 14.6645V14.7655C108.231 14.8664 108.739 15.0448 109.183 15.3006C109.634 15.5564 109.987 15.9233 110.243 16.4012C110.506 16.8792 110.637 17.4985 110.637 18.2591C110.637 19.1612 110.422 19.9286 109.991 20.5613C109.567 21.1941 108.958 21.6754 108.163 22.0052C107.376 22.3351 106.44 22.5 105.356 22.5H100.055V7.73774ZM102.478 13.8264H104.801C105.898 13.8264 106.659 13.648 107.083 13.2913C107.507 12.9345 107.719 12.4128 107.719 11.7262C107.719 11.0261 107.467 10.5212 106.962 10.2116C106.464 9.90193 105.669 9.74711 104.579 9.74711H102.478V13.8264ZM102.478 15.7853V20.4704H105.033C106.164 20.4704 106.958 20.2517 107.416 19.8141C107.874 19.3766 108.103 18.7842 108.103 18.037C108.103 17.5792 107.998 17.1821 107.79 16.8455C107.588 16.5089 107.254 16.2498 106.79 16.068C106.326 15.8795 105.699 15.7853 104.912 15.7853H102.478ZM122.512 16.8859C122.512 17.8149 122.391 18.6395 122.149 19.3597C121.906 20.08 121.553 20.6892 121.089 21.1874C120.624 21.6788 120.065 22.0557 119.412 22.3182C118.759 22.574 118.022 22.7019 117.201 22.7019C116.434 22.7019 115.73 22.574 115.091 22.3182C114.451 22.0557 113.896 21.6788 113.425 21.1874C112.96 20.6892 112.6 20.08 112.344 19.3597C112.089 18.6395 111.961 17.8149 111.961 16.8859C111.961 15.654 112.173 14.6106 112.597 13.7557C113.028 12.8941 113.64 12.2378 114.434 11.7868C115.229 11.3357 116.175 11.1102 117.272 11.1102C118.302 11.1102 119.21 11.3357 119.998 11.7868C120.786 12.2378 121.402 12.8941 121.846 13.7557C122.29 14.6174 122.512 15.6608 122.512 16.8859ZM114.404 16.8859C114.404 17.7004 114.502 18.3971 114.697 18.976C114.899 19.555 115.209 19.9992 115.626 20.3089C116.043 20.6118 116.582 20.7633 117.242 20.7633C117.901 20.7633 118.44 20.6118 118.857 20.3089C119.274 19.9992 119.581 19.555 119.776 18.976C119.971 18.3971 120.069 17.7004 120.069 16.8859C120.069 16.0714 119.971 15.3814 119.776 14.816C119.581 14.2438 119.274 13.8096 118.857 13.5134C118.44 13.2105 117.898 13.059 117.231 13.059C116.249 13.059 115.532 13.3889 115.081 14.0486C114.63 14.7082 114.404 15.654 114.404 16.8859ZM128.794 11.1102C130.207 11.1102 131.274 11.4233 131.994 12.0493C132.721 12.6753 133.085 13.6514 133.085 14.9775V22.5H131.399L130.944 20.9147H130.864C130.547 21.3186 130.221 21.6518 129.884 21.9144C129.548 22.1769 129.157 22.3721 128.713 22.5C128.275 22.6346 127.74 22.7019 127.107 22.7019C126.441 22.7019 125.845 22.5808 125.32 22.3384C124.795 22.0894 124.381 21.7124 124.078 21.2075C123.775 20.7027 123.624 20.0632 123.624 19.2891C123.624 18.138 124.051 17.273 124.906 16.6941C125.768 16.1151 127.067 15.7954 128.804 15.7348L130.742 15.6641V15.0785C130.742 14.3044 130.561 13.7524 130.197 13.4225C129.84 13.0927 129.336 12.9278 128.683 12.9278C128.124 12.9278 127.582 13.0085 127.057 13.1701C126.532 13.3316 126.02 13.5302 125.522 13.7658L124.755 12.0897C125.3 11.8002 125.919 11.5646 126.613 11.3829C127.313 11.2011 128.04 11.1102 128.794 11.1102ZM130.732 17.1585L129.288 17.209C128.104 17.2494 127.272 17.4513 126.794 17.8149C126.316 18.1784 126.077 18.6765 126.077 19.3093C126.077 19.8612 126.242 20.2651 126.572 20.5209C126.902 20.77 127.336 20.8945 127.875 20.8945C128.696 20.8945 129.376 20.6623 129.914 20.1978C130.46 19.7266 130.732 19.0366 130.732 18.1279V17.1585ZM141.244 11.1102C141.433 11.1102 141.638 11.1203 141.86 11.1405C142.082 11.1607 142.274 11.1877 142.436 11.2213L142.214 13.4427C142.072 13.4023 141.897 13.372 141.689 13.3518C141.487 13.3316 141.305 13.3216 141.143 13.3216C140.719 13.3216 140.315 13.3922 139.932 13.5336C139.548 13.6682 139.208 13.8769 138.912 14.1596C138.616 14.4356 138.384 14.7823 138.215 15.1997C138.047 15.617 137.963 16.1017 137.963 16.6537V22.5H135.58V11.3223H137.438L137.761 13.2913H137.872C138.094 12.8941 138.37 12.5306 138.7 12.2008C139.03 11.8709 139.407 11.6084 139.831 11.4132C140.262 11.2112 140.733 11.1102 141.244 11.1102ZM147.435 22.7019C146.102 22.7019 145.032 22.2173 144.224 21.2479C143.423 20.2719 143.022 18.8347 143.022 16.9364C143.022 15.0179 143.43 13.5673 144.244 12.5844C145.065 11.6016 146.146 11.1102 147.485 11.1102C148.051 11.1102 148.546 11.1877 148.97 11.3425C149.394 11.4906 149.757 11.6925 150.06 11.9483C150.37 12.2041 150.632 12.4902 150.848 12.8066H150.959C150.925 12.5979 150.885 12.2984 150.838 11.9079C150.797 11.5108 150.777 11.1439 150.777 10.8073V6.7886H153.16V22.5H151.302L150.878 20.9753H150.777C150.575 21.2984 150.319 21.5912 150.01 21.8538C149.707 22.1096 149.343 22.3149 148.919 22.4697C148.502 22.6245 148.007 22.7019 147.435 22.7019ZM148.101 20.7734C149.118 20.7734 149.835 20.4805 150.252 19.8949C150.669 19.3093 150.885 18.4308 150.898 17.2595V16.9465C150.898 15.6944 150.696 14.7352 150.292 14.0688C149.889 13.3956 149.151 13.059 148.081 13.059C147.226 13.059 146.573 13.4057 146.122 14.099C145.678 14.7857 145.456 15.7449 145.456 16.9768C145.456 18.2086 145.678 19.1511 146.122 19.804C146.573 20.4502 147.233 20.7734 148.101 20.7734Z" fill="white"/>
</svg>
