<svg width="24" height="24" viewBox="0 0 24 24" fill="none" xmlns="http://www.w3.org/2000/svg">
<path opacity="0.99" d="M10.313 16.094C10.1815 16.0943 10.0512 16.0685 9.92971 16.0182C9.8082 15.9679 9.69784 15.8941 9.60498 15.801L6.79298 12.988C6.61082 12.7994 6.51003 12.5468 6.51231 12.2846C6.51458 12.0224 6.61975 11.7716 6.80516 11.5862C6.99057 11.4008 7.24138 11.2956 7.50358 11.2933C7.76578 11.291 8.01838 11.3918 8.20698 11.574L10.312 13.68L15.793 8.19999C15.9823 8.0222 16.2334 7.92504 16.4931 7.92908C16.7527 7.93311 17.0007 8.03802 17.1844 8.2216C17.3681 8.40518 17.4732 8.65304 17.4774 8.91272C17.4816 9.1724 17.3846 9.42354 17.207 9.61299L11.019 15.801C10.9262 15.894 10.816 15.9677 10.6947 16.018C10.5734 16.0683 10.4433 16.0941 10.312 16.094H10.313Z" fill="url(#paint0_linear_9_127)"/>
<g filter="url(#filter0_bii_9_127)">
<path d="M12 2C10.0222 2 8.08879 2.58649 6.4443 3.6853C4.79981 4.78412 3.51809 6.3459 2.76121 8.17317C2.00433 10.0004 1.8063 12.0111 2.19215 13.9509C2.578 15.8907 3.53041 17.6725 4.92894 19.0711C6.32746 20.4696 8.10929 21.422 10.0491 21.8079C11.9889 22.1937 13.9996 21.9957 15.8268 21.2388C17.6541 20.4819 19.2159 19.2002 20.3147 17.5557C21.4135 15.9112 22 13.9778 22 12C21.9971 9.34873 20.9426 6.80688 19.0679 4.93215C17.1931 3.05742 14.6513 2.00291 12 2ZM17.207 9.613L11.019 15.801C10.8315 15.9885 10.5772 16.0938 10.312 16.0938C10.0468 16.0938 9.79253 15.9885 9.605 15.801L6.793 12.988C6.61085 12.7994 6.51005 12.5468 6.51233 12.2846C6.51461 12.0224 6.61978 11.7716 6.80519 11.5862C6.99059 11.4008 7.24141 11.2956 7.5036 11.2933C7.7658 11.291 8.0184 11.3918 8.207 11.574L10.312 13.68L15.793 8.2C15.9823 8.02221 16.2334 7.92505 16.4931 7.92909C16.7528 7.93312 17.0007 8.03803 17.1844 8.22161C17.3681 8.40519 17.4732 8.65305 17.4774 8.91273C17.4816 9.17241 17.3847 9.42355 17.207 9.613Z" fill="white" fill-opacity="0.2"/>
</g>
<defs>
<filter id="filter0_bii_9_127" x="-2" y="-2" width="28" height="28" filterUnits="userSpaceOnUse" color-interpolation-filters="sRGB">
<feFlood flood-opacity="0" result="BackgroundImageFix"/>
<feGaussianBlur in="BackgroundImageFix" stdDeviation="2"/>
<feComposite in2="SourceAlpha" operator="in" result="effect1_backgroundBlur_9_127"/>
<feBlend mode="normal" in="SourceGraphic" in2="effect1_backgroundBlur_9_127" result="shape"/>
<feColorMatrix in="SourceAlpha" type="matrix" values="0 0 0 0 0 0 0 0 0 0 0 0 0 0 0 0 0 0 127 0" result="hardAlpha"/>
<feOffset dy="-4"/>
<feGaussianBlur stdDeviation="2"/>
<feComposite in2="hardAlpha" operator="arithmetic" k2="-1" k3="1"/>
<feColorMatrix type="matrix" values="0 0 0 0 1 0 0 0 0 1 0 0 0 0 1 0 0 0 0.05 0"/>
<feBlend mode="normal" in2="shape" result="effect2_innerShadow_9_127"/>
<feColorMatrix in="SourceAlpha" type="matrix" values="0 0 0 0 0 0 0 0 0 0 0 0 0 0 0 0 0 0 127 0" result="hardAlpha"/>
<feOffset dx="-4" dy="-4"/>
<feGaussianBlur stdDeviation="2"/>
<feComposite in2="hardAlpha" operator="arithmetic" k2="-1" k3="1"/>
<feColorMatrix type="matrix" values="0 0 0 0 1 0 0 0 0 1 0 0 0 0 1 0 0 0 0.05 0"/>
<feBlend mode="normal" in2="effect2_innerShadow_9_127" result="effect3_innerShadow_9_127"/>
</filter>
<linearGradient id="paint0_linear_9_127" x1="11.9949" y1="7.92896" x2="11.9949" y2="16.094" gradientUnits="userSpaceOnUse">
<stop offset="0.451042" stop-color="#2072FE"/>
<stop offset="1" stop-color="#07B4EB"/>
</linearGradient>
</defs>
</svg>
